<?xml version="1.0" encoding="utf-8" ?>
<svg xmlns="http://www.w3.org/2000/svg" xmlns:xlink="http://www.w3.org/1999/xlink" width="100" height="100">
	<path transform="scale(0.195312 0.195312)" d="M148.903 204.006C148.712 199.376 149.208 194.739 149.621 190.13L152.789 155.393C154.338 137.158 160.669 123.081 181.848 120.779C193.051 120.598 204.28 120.784 215.486 120.786L315.018 120.773C332.378 120.747 350.22 119.515 356.89 140.711C358.781 146.721 358.73 153.633 359.309 159.9L362.949 204.006C373.053 204.663 378.943 204.101 387.695 210.63C403.23 222.22 405.636 246.635 391.33 260.285C388.938 262.567 385.846 264.118 383.892 266.848L378.796 322.146C377.357 338.78 380.663 359.16 361.728 365.698L361.758 374.039C361.791 389.935 357.634 391.141 342.573 391.313C325.607 391.507 326.039 385.396 326.068 370.416L326.068 366.426L185.997 366.426C186.057 382.949 188.595 390.992 169.173 391.289C147.163 391.626 150.124 383.093 150.195 365.698C135.324 357.403 135.692 351.965 134.247 335.252L129.843 285.931C129.246 279.594 128.416 273.217 128.402 266.848C125.343 264.528 122.204 262.694 119.502 259.896C107.051 247.003 108.025 225.34 120.893 213.127C129.045 205.39 138.074 203.744 148.903 204.006ZM204.059 131.017L191.299 131C162.141 131.004 164.267 144.044 162.006 167.746L159.641 192.375C159.179 197.325 158.516 202.328 158.57 207.304L158.582 207.987C168.2 210.49 175.669 222.615 177.299 232.026C178.079 236.525 178.002 258.092 177.518 263.454C195.578 243.091 205.889 242.719 230.548 242.727L281.525 242.724C289.259 242.721 297.065 242.342 304.677 243.972C317.03 247.114 325.72 252.823 334.202 262.225L334.19 245.765C334.164 229.339 336.696 215.707 352.728 207.987C352.595 203.054 352.074 198.125 351.691 193.206L348.468 152.939C346.527 131.417 337.623 130.993 317.538 131.004L204.059 131.017ZM365.646 214.577C342.359 216.587 344.506 239.148 344.506 255.385L344.498 348.598C344.483 351.121 344.298 353.711 344.509 356.225C351.9 356.267 360.176 357.711 365.646 351.416C367.338 346.24 367.465 334.953 368.014 328.971L372.758 277.57C373.035 274.339 373.404 263.76 374.467 261.227C376.052 257.456 381.032 255.907 383.955 253.217C401.269 237.279 382.828 209.952 365.646 214.577ZM141.766 214.577C128.375 216.527 119.451 227.686 121.473 241.252C123.619 255.66 136.65 255.873 138.092 264.626C139.039 270.374 139.218 276.469 139.795 282.285L144.232 330.044C144.97 337.47 143.665 349.101 150.195 354.182C155.3 357.071 161.664 356.252 167.342 356.225L167.348 246.113C167.352 241.923 167.815 237.583 167.097 233.444C165.112 221.992 153.414 212.988 141.766 214.577ZM218.834 252.806C196.772 254.082 176.049 270.932 177.518 293.909L293.125 293.909L334.202 293.909C334.64 269.247 316.373 253.144 292.189 252.809C267.757 252.47 243.271 252.807 218.834 252.806ZM178.313 304.006L177.657 304.26C176.996 306.421 177.506 312.743 177.518 315.406L333.063 315.406L333.928 315.255C334.802 313.693 334.191 306.239 334.202 304.006L178.313 304.006ZM192.514 325.616L177.518 325.616L177.518 356.225L319.796 356.225L334.202 356.225L334.202 325.616L192.514 325.616ZM160.53 366.426L160.53 380.677L175.768 380.677L175.768 366.426L160.53 366.426ZM336.269 366.426L336.269 380.677C339.398 380.676 348.649 381.226 351.097 380.677C351.89 376.086 351.554 371.088 351.537 366.426L336.269 366.426Z"/>
	<path transform="scale(0.195312 0.195312)" d="M224.216 193.754C219.998 193.775 209.787 194.614 206.608 192.608C202.458 189.99 204.395 184.335 209.914 183.584C215.23 183.581 220.64 183.32 225.945 183.584C229.333 186.993 230.19 192.378 224.216 193.754Z"/>
	<path transform="scale(0.195312 0.195312)" d="M264.063 193.754C260.199 193.754 248.036 194.533 245.318 192.572C240.957 189.426 244.36 184.008 248.928 183.584C253.082 183.562 263.936 182.757 266.971 184.787C271.177 187.602 268.468 193.254 264.063 193.754Z"/>
	<path transform="scale(0.195312 0.195312)" d="M302.812 193.754C298.809 193.751 288.207 194.786 285.243 192.328C281.297 189.055 283.691 183.949 289.631 183.584C293.398 183.591 303.59 182.753 306.404 184.834C310.81 188.092 307.483 193.6 302.812 193.754Z"/>
</svg>
